#N canvas 292 156 450 345 10;
#X obj 58 16 inlet~;
#X obj 123 15 inlet;
#X obj 123 96 line \$1 100;
#X floatatom 272 150 5 0 5 0 - reverb-gain -;
#X text 270 130 reverb-gain;
#X text 69 129 reverb;
#X obj 56 212 *~;
#X obj 111 212 *~;
#X obj 167 212 *~;
#X obj 221 213 *~;
#X obj 55 272 outlet~;
#X obj 110 273 outlet~;
#X obj 166 273 outlet~;
#X obj 221 275 outlet~;
#X floatatom 138 122 5 0 0 0 - - -;
#X obj 123 73 scale 0 1 85 100;
#X floatatom 142 40 5 0 0 0 - - -;
#X floatatom 247 21 5 0 0 0 - - -;
#X obj 57 150 rev3~ 60 75 3000 20, f 28;
#X connect 0 0 18 0;
#X connect 1 0 15 0;
#X connect 1 0 16 0;
#X connect 2 0 14 0;
#X connect 2 0 18 2;
#X connect 3 0 9 1;
#X connect 3 0 8 1;
#X connect 3 0 7 1;
#X connect 3 0 6 1;
#X connect 6 0 10 0;
#X connect 7 0 11 0;
#X connect 8 0 12 0;
#X connect 9 0 13 0;
#X connect 15 0 2 0;
#X connect 17 0 15 3;
#X connect 18 0 6 0;
#X connect 18 1 7 0;
#X connect 18 2 8 0;
#X connect 18 3 9 0;
