#N canvas -7 0 954 998 10;
#X obj 648 111 soundfiler;
#X obj 623 48 loadbang;
#X obj 102 242 mrpeach/unpackOSC;
#X text 100 195 osc;
#X text 623 19 setup;
#X obj 45 855 +~;
#X obj 100 855 +~;
#X obj 155 854 +~;
#X obj 210 854 +~;
#X obj 44 714 pan4~, f 10;
#X obj 44 794 +~;
#X obj 101 794 +~;
#X obj 155 794 +~;
#X obj 210 794 +~;
#X obj 119 704 genrev~;
#X obj 269 794 +~;
#X obj 326 794 +~;
#X obj 380 794 +~;
#X obj 435 794 +~;
#X obj 182 715 pan4~, f 10;
#X obj 257 705 genrev~;
#X obj 322 715 pan4~, f 10;
#X obj 397 705 genrev~;
#X obj 460 712 pan4~, f 10;
#X obj 535 702 genrev~;
#X obj 45 655 *~ 1;
#X floatatom 147 671 5 0 0 0 - - -;
#X floatatom 102 671 5 0 0 0 - - -;
#X obj 687 48 table fuss;
#X obj 763 48 table fuss2;
#X obj 183 656 *~ 1;
#X obj 323 656 *~ 1;
#X obj 461 653 *~ 1;
#X text 33 20 sources;
#X floatatom 648 135 10 0 0 0 - - -;
#X msg 648 199 read -resize resources/413-20190423.wav fuss2;
#X msg 648 87 read -resize resources/413-20190326.wav fuss;
#X obj 648 225 soundfiler;
#X floatatom 648 249 10 0 0 0 - - -;
#X obj 659 159 s numsamples-fuss;
#X obj 659 273 s numsamples-fuss2;
#X obj 193 111 r numsamples-fuss2;
#X obj 183 139 sourcectrl~ fuss2;
#X obj 674 417 adc~;
#X obj 648 474 vsl 15 64 0 1 0 0 empty empty empty 0 -9 0 10 -262144
-1 -1 4755 1;
#X obj 674 471 scale 0 100 0 1;
#X floatatom 674 498 10 0 0 0 - - -;
#X text 669 390 shushes (naive thresholding);
#X obj 830 631 loadbang;
#X obj 54 111 r numsamples-fuss;
#X obj 44 139 sourcectrl~ fuss;
#X obj 673 596 spigot;
#X obj 735 596 tgl 15 0 empty empty empty 17 7 0 10 -262144 -1 -1 1
1;
#X obj 674 547 select 1;
#X obj 674 572 t b b;
#X obj 673 620 bng 15 250 50 0 empty empty empty 17 7 0 10 -262144
-1 -1;
#X obj 735 568 delay 1000;
#X floatatom 283 672 5 0 0 0 - - -;
#X floatatom 240 672 5 0 0 0 - - -;
#X floatatom 422 673 5 0 0 0 - - -;
#X floatatom 380 672 5 0 0 0 - - -;
#X floatatom 569 672 5 0 0 0 - - -;
#X floatatom 518 672 5 0 0 0 - - -;
#X obj 102 219 netreceive -u -b 8000;
#X msg 694 699 disconnect \, connect localhost 12000;
#X obj 673 667 mrpeach/packOSC;
#X msg 673 642 send /shush 1;
#X obj 694 725 mrpeach/udpsend;
#X obj 674 444 env~ 16384 4096;
#X obj 332 109 r numsamples-fuss2;
#X obj 322 137 sourcectrl~ fuss2;
#X obj 473 109 r numsamples-fuss2;
#X obj 463 137 sourcectrl~ fuss2;
#X obj 44 49 bng 32 250 50 0 empty empty empty 17 7 0 10 -262144 -1
-1;
#X msg 623 314 \; reverb-gain 1 \; sumsamples-clip 1.7328e+006 \;,
f 35;
#X obj 45 912 *~;
#X obj 100 912 *~;
#X obj 156 912 *~;
#X obj 210 911 *~;
#X floatatom 255 885 5 0 2 0 - - -;
#X obj 46 947 dac~ 3 4 5 6, f 28;
#X obj 674 522 > 0.725;
#X text 256 866 master-gain;
#X obj 102 646 unpack f f f;
#X obj 240 647 unpack f f f;
#X obj 380 647 unpack f f f;
#X obj 518 644 unpack f f f;
#X obj 102 265 mrpeach/routeOSC /0 /1 /2 /3;
#X connect 0 0 34 0;
#X connect 1 0 74 0;
#X connect 1 0 36 0;
#X connect 1 0 35 0;
#X connect 2 0 87 0;
#X connect 5 0 75 0;
#X connect 6 0 76 0;
#X connect 7 0 77 0;
#X connect 8 0 78 0;
#X connect 9 0 10 0;
#X connect 9 1 11 0;
#X connect 9 2 12 0;
#X connect 9 3 13 0;
#X connect 10 0 5 0;
#X connect 11 0 6 0;
#X connect 12 0 7 0;
#X connect 13 0 8 0;
#X connect 14 0 15 0;
#X connect 14 1 16 0;
#X connect 14 2 17 0;
#X connect 14 3 18 0;
#X connect 15 0 5 1;
#X connect 16 0 6 1;
#X connect 17 0 7 1;
#X connect 18 0 8 1;
#X connect 19 0 10 1;
#X connect 19 1 11 1;
#X connect 19 2 12 1;
#X connect 19 3 13 1;
#X connect 20 0 15 1;
#X connect 20 1 16 1;
#X connect 20 2 17 1;
#X connect 20 3 18 1;
#X connect 21 0 10 1;
#X connect 21 1 11 1;
#X connect 21 2 12 1;
#X connect 21 3 13 1;
#X connect 22 0 15 1;
#X connect 22 1 16 1;
#X connect 22 2 17 1;
#X connect 22 3 18 1;
#X connect 23 0 10 1;
#X connect 23 1 11 1;
#X connect 23 2 12 1;
#X connect 23 3 13 1;
#X connect 24 0 15 1;
#X connect 24 1 16 1;
#X connect 24 2 17 1;
#X connect 24 3 18 1;
#X connect 25 0 9 0;
#X connect 25 0 14 0;
#X connect 30 0 20 0;
#X connect 30 0 19 0;
#X connect 31 0 22 0;
#X connect 31 0 21 0;
#X connect 32 0 24 0;
#X connect 32 0 23 0;
#X connect 34 0 39 0;
#X connect 35 0 37 0;
#X connect 36 0 0 0;
#X connect 37 0 38 0;
#X connect 38 0 40 0;
#X connect 41 0 42 1;
#X connect 42 0 30 0;
#X connect 43 0 68 0;
#X connect 43 1 68 0;
#X connect 44 0 46 0;
#X connect 45 0 44 0;
#X connect 46 0 81 0;
#X connect 48 0 52 0;
#X connect 48 0 64 0;
#X connect 49 0 50 1;
#X connect 50 0 25 0;
#X connect 51 0 55 0;
#X connect 51 0 52 0;
#X connect 51 0 56 0;
#X connect 52 0 51 1;
#X connect 53 0 54 0;
#X connect 54 1 51 0;
#X connect 55 0 66 0;
#X connect 56 0 52 0;
#X connect 63 0 2 0;
#X connect 64 0 67 0;
#X connect 65 0 67 0;
#X connect 66 0 65 0;
#X connect 68 0 45 0;
#X connect 69 0 70 1;
#X connect 70 0 31 0;
#X connect 71 0 72 1;
#X connect 72 0 32 0;
#X connect 73 0 50 0;
#X connect 75 0 80 0;
#X connect 76 0 80 1;
#X connect 77 0 80 2;
#X connect 78 0 80 3;
#X connect 79 0 78 1;
#X connect 79 0 77 1;
#X connect 79 0 76 1;
#X connect 79 0 75 1;
#X connect 81 0 53 0;
#X connect 83 0 9 1;
#X connect 83 0 27 0;
#X connect 83 1 26 0;
#X connect 83 1 9 2;
#X connect 83 1 14 1;
#X connect 83 2 50 1;
#X connect 84 0 58 0;
#X connect 84 0 19 1;
#X connect 84 1 57 0;
#X connect 84 1 20 1;
#X connect 84 1 19 2;
#X connect 84 2 42 1;
#X connect 85 0 60 0;
#X connect 85 0 21 1;
#X connect 85 1 59 0;
#X connect 85 1 22 1;
#X connect 85 1 21 2;
#X connect 85 2 70 1;
#X connect 86 0 62 0;
#X connect 86 0 23 1;
#X connect 86 1 61 0;
#X connect 86 1 24 1;
#X connect 86 1 23 2;
#X connect 86 2 72 2;
#X connect 87 0 83 0;
#X connect 87 1 84 0;
#X connect 87 2 85 0;
#X connect 87 3 86 0;
