#N canvas -7 0 958 998 10;
#X obj 644 127 soundfiler;
#X obj 49 139 *~ 1;
#X obj 49 56 bng 15 250 50 0 empty empty empty 17 7 0 10 -262144 -1
-1;
#X floatatom 757 191 5 0 0 0 - level -;
#X floatatom 757 212 5 0 0 0 - liveness -;
#X floatatom 757 233 5 0 0 0 - crossover -;
#X floatatom 757 255 5 0 0 0 - damping -;
#X obj 615 57 loadbang;
#X obj 817 211 s liveness;
#X obj 817 233 s crossover;
#X obj 817 190 s level;
#X obj 817 255 s damping;
#X obj 626 168 bng 15 250 50 0 empty empty empty 17 7 0 10 -262144
-1 -1;
#X obj 76 56 spigot;
#X obj 127 57 tgl 15 0 empty empty empty 17 7 0 10 -262144 -1 -1 1
1;
#X msg 644 100 read -resize resources/413-20190326.wav fuss;
#X obj 679 57 table fuss;
#X obj 265 448 rev3~ 100 90 3000 20, f 28;
#X obj 250 666 +~;
#X obj 364 367 r liveness;
#X obj 397 388 r crossover;
#X obj 430 409 r damping;
#X obj 193 55 netreceive -u -b 8000;
#X obj 193 92 mrpeach/unpackOSC;
#X obj 426 282 r level;
#X obj 331 346 line \$1 100;
#X obj 331 317 scale 0 1 50 100;
#X obj 49 527 pan4~, f 13;
#X text 191 31 osc;
#X obj 250 780 dac~ 1 2 2 1, f 28;
#X obj 305 666 +~;
#X obj 360 665 +~;
#X obj 415 665 +~;
#X floatatom 193 188 5 0 0 0 - - -;
#X obj 193 237 wrap~;
#X obj 192 263 *~ 4;
#X obj 193 212 + 0;
#X obj 193 131 mrpeach/routeOSC /angle /dist, f 30;
#X obj 49 94 tabplay~ fuss;
#X floatatom 97 140 5 0 20 0 - source-gain -;
#X obj 48 405 *~;
#X obj 266 403 *~;
#X floatatom 281 189 5 0 1 0 - - -;
#X obj 281 214 - 1;
#X obj 281 239 abs;
#X floatatom 281 263 5 0 0 0 - - -;
#X obj 430 520 *~;
#X obj 264 520 *~;
#X obj 319 520 *~;
#X obj 374 520 *~;
#X floatatom 494 463 5 0 5 0 - reverb-gain -;
#X text 46 33 source;
#X text 494 444 reverb-gain;
#X text 95 123 source-gain;
#X text 205 168 angle;
#X text 293 168 distance;
#X text 61 506 direction;
#X text 277 427 reverb;
#X text 615 34 setup;
#X msg 615 193 \; source-gain 1 \; direct-gain 1 \; reverb-gain 5 \;
level 60 \; liveness 75 \; crossover 3000 \; damping 20 \;, f 18;
#X connect 1 0 40 0;
#X connect 1 0 41 0;
#X connect 2 0 38 0;
#X connect 3 0 10 0;
#X connect 4 0 8 0;
#X connect 5 0 9 0;
#X connect 6 0 11 0;
#X connect 7 0 15 0;
#X connect 7 0 59 0;
#X connect 12 0 59 0;
#X connect 13 0 38 0;
#X connect 14 0 13 1;
#X connect 15 0 0 0;
#X connect 17 0 47 0;
#X connect 17 1 48 0;
#X connect 17 2 49 0;
#X connect 17 3 46 0;
#X connect 18 0 29 0;
#X connect 19 0 17 3;
#X connect 20 0 17 4;
#X connect 21 0 17 5;
#X connect 22 0 23 0;
#X connect 23 0 37 0;
#X connect 24 0 26 4;
#X connect 25 0 17 2;
#X connect 26 0 25 0;
#X connect 27 0 18 0;
#X connect 27 1 30 0;
#X connect 27 2 31 0;
#X connect 27 3 32 0;
#X connect 30 0 29 1;
#X connect 31 0 29 2;
#X connect 32 0 29 3;
#X connect 33 0 36 0;
#X connect 34 0 35 0;
#X connect 35 0 27 1;
#X connect 36 0 34 0;
#X connect 37 0 33 0;
#X connect 37 1 42 0;
#X connect 38 0 1 0;
#X connect 38 1 13 0;
#X connect 39 0 1 1;
#X connect 40 0 27 0;
#X connect 41 0 17 0;
#X connect 42 0 43 0;
#X connect 43 0 44 0;
#X connect 44 0 45 0;
#X connect 45 0 41 1;
#X connect 45 0 40 1;
#X connect 46 0 32 1;
#X connect 47 0 18 1;
#X connect 48 0 30 1;
#X connect 49 0 31 1;
#X connect 50 0 47 1;
#X connect 50 0 48 1;
#X connect 50 0 49 1;
#X connect 50 0 46 1;
