#N canvas -7 0 954 998 10;
#X obj 630 396 soundfiler;
#X obj 605 333 loadbang;
#X obj 641 113 mrpeach/unpackOSC;
#X text 639 41 osc;
#X text 605 310 setup;
#X obj 45 852 +~;
#X obj 100 852 +~;
#X obj 155 851 +~;
#X obj 210 851 +~;
#X obj 101 336 unpack f f;
#X obj 44 386 pan4~, f 10;
#X obj 641 136 mrpeach/routeOSC /0 /1 /2 /3 /4 /5 /6 /7 /actor;
#X floatatom 719 275 5 0 0 0 - - -;
#X obj 44 747 +~;
#X obj 101 747 +~;
#X obj 155 747 +~;
#X obj 210 747 +~;
#X obj 119 376 genrev~;
#X obj 275 797 +~;
#X obj 332 797 +~;
#X obj 386 797 +~;
#X obj 441 797 +~;
#X obj 239 337 unpack f f;
#X obj 182 387 pan4~, f 10;
#X obj 257 377 genrev~;
#X obj 379 337 unpack f f;
#X obj 322 387 pan4~, f 10;
#X obj 397 377 genrev~;
#X obj 517 334 unpack f f;
#X obj 460 384 pan4~, f 10;
#X obj 535 374 genrev~;
#X obj 44 345 *~ 1;
#X floatatom 114 302 5 0 0 0 - - -;
#X floatatom 63 302 5 0 0 0 - - -;
#X obj 669 333 table fuss;
#X obj 745 333 table fuss2;
#X obj 182 346 *~ 1;
#X obj 322 346 *~ 1;
#X obj 460 343 *~ 1;
#X text 718 240 orientation of the actor \; does not affect environmental
sound;
#X text 27 48 sources;
#X text 61 279 osc processing;
#X floatatom 630 420 10 0 0 0 - - -;
#X msg 630 484 read -resize resources/413-20190423.wav fuss2;
#X msg 630 372 read -resize resources/413-20190326.wav fuss;
#X obj 630 510 soundfiler;
#X floatatom 630 534 10 0 0 0 - - -;
#X obj 641 444 s numsamples-fuss;
#X obj 641 558 s numsamples-fuss2;
#X obj 166 187 bng 15 250 50 0 empty empty empty 17 7 0 10 -262144
-1 -1;
#X obj 192 187 r numsamples-fuss2;
#X obj 45 927 dac~ 1 2 2 1, f 28;
#X msg 605 599 \; reverb-gain 5 \; sumsamples-clip 1.7328e+006 \;,
f 35;
#X obj 182 215 sourcectrl~ fuss2;
#X obj 27 74 bng 15 250 50 0 empty empty empty 17 7 0 10 -262144 -1
-1;
#X obj 611 692 adc~;
#X obj 585 749 vsl 15 64 0 1 0 0 empty empty empty 0 -9 0 10 -262144
-1 -1 3799 1;
#X obj 611 746 scale 0 100 0 1;
#X floatatom 611 773 10 0 0 0 - - -;
#X text 606 665 shushes (naive thresholding);
#X obj 721 879 loadbang;
#X obj 53 74 r numsamples-fuss;
#X obj 43 102 sourcectrl~ fuss;
#X obj 610 871 spigot;
#X obj 672 871 tgl 15 0 empty empty empty 17 7 0 10 -262144 -1 -1 1
1;
#X obj 611 822 select 1;
#X obj 611 847 t b b;
#X obj 610 895 bng 15 250 50 0 empty empty empty 17 7 0 10 -262144
-1 -1;
#X obj 672 843 delay 1000;
#X floatatom 262 304 5 0 0 0 - - -;
#X floatatom 211 304 5 0 0 0 - - -;
#X floatatom 406 298 5 0 0 0 - - -;
#X floatatom 355 298 5 0 0 0 - - -;
#X floatatom 540 299 5 0 0 0 - - -;
#X floatatom 489 299 5 0 0 0 - - -;
#X obj 641 65 netreceive -u -b 8000;
#X msg 721 941 disconnect \, connect localhost 12000;
#X obj 610 942 mrpeach/packOSC;
#X msg 610 917 send /shush 1;
#X obj 721 967 mrpeach/udpsend;
#X obj 611 719 env~ 16384 4096;
#X obj 611 797 > 0.95;
#X connect 0 0 42 0;
#X connect 1 0 52 0;
#X connect 2 0 11 0;
#X connect 5 0 51 0;
#X connect 6 0 51 1;
#X connect 7 0 51 2;
#X connect 8 0 51 3;
#X connect 9 0 10 1;
#X connect 9 0 33 0;
#X connect 9 1 17 1;
#X connect 9 1 32 0;
#X connect 10 0 13 0;
#X connect 10 1 14 0;
#X connect 10 2 15 0;
#X connect 10 3 16 0;
#X connect 11 0 9 0;
#X connect 11 1 22 0;
#X connect 11 2 25 0;
#X connect 11 3 28 0;
#X connect 11 8 12 0;
#X connect 13 0 5 0;
#X connect 14 0 6 0;
#X connect 15 0 7 0;
#X connect 16 0 8 0;
#X connect 17 0 18 0;
#X connect 17 1 19 0;
#X connect 17 2 20 0;
#X connect 17 3 21 0;
#X connect 18 0 5 1;
#X connect 19 0 6 1;
#X connect 20 0 7 1;
#X connect 21 0 8 1;
#X connect 22 0 23 1;
#X connect 22 0 70 0;
#X connect 22 1 24 1;
#X connect 22 1 69 0;
#X connect 23 0 13 1;
#X connect 23 1 14 1;
#X connect 23 2 15 1;
#X connect 23 3 16 1;
#X connect 24 0 18 1;
#X connect 24 1 19 1;
#X connect 24 2 20 1;
#X connect 24 3 21 1;
#X connect 25 0 26 1;
#X connect 25 0 72 0;
#X connect 25 1 27 1;
#X connect 25 1 71 0;
#X connect 26 0 13 1;
#X connect 26 1 14 1;
#X connect 26 2 15 1;
#X connect 26 3 16 1;
#X connect 27 0 18 1;
#X connect 27 1 19 1;
#X connect 27 2 20 1;
#X connect 27 3 21 1;
#X connect 28 0 29 1;
#X connect 28 0 74 0;
#X connect 28 1 30 1;
#X connect 28 1 73 0;
#X connect 29 0 13 1;
#X connect 29 1 14 1;
#X connect 29 2 15 1;
#X connect 29 3 16 1;
#X connect 30 0 18 1;
#X connect 30 1 19 1;
#X connect 30 2 20 1;
#X connect 30 3 21 1;
#X connect 31 0 10 0;
#X connect 31 0 17 0;
#X connect 36 0 23 0;
#X connect 36 0 24 0;
#X connect 37 0 26 0;
#X connect 37 0 27 0;
#X connect 38 0 29 0;
#X connect 38 0 30 0;
#X connect 42 0 47 0;
#X connect 43 0 45 0;
#X connect 44 0 0 0;
#X connect 45 0 46 0;
#X connect 46 0 48 0;
#X connect 49 0 53 0;
#X connect 50 0 53 1;
#X connect 53 0 36 0;
#X connect 54 0 62 0;
#X connect 55 0 80 0;
#X connect 55 1 80 0;
#X connect 56 0 58 0;
#X connect 57 0 56 0;
#X connect 58 0 81 0;
#X connect 60 0 64 0;
#X connect 60 0 76 0;
#X connect 61 0 62 1;
#X connect 62 0 31 0;
#X connect 63 0 67 0;
#X connect 63 0 64 0;
#X connect 63 0 68 0;
#X connect 64 0 63 1;
#X connect 65 0 66 0;
#X connect 66 1 63 0;
#X connect 67 0 78 0;
#X connect 68 0 64 0;
#X connect 75 0 2 0;
#X connect 76 0 79 0;
#X connect 77 0 79 0;
#X connect 78 0 77 0;
#X connect 80 0 57 0;
#X connect 81 0 65 0;
