#N canvas -7 0 958 998 10;
#X obj 648 108 soundfiler;
#X obj 445 24 loadbang;
#X obj 102 572 mrpeach/unpackOSC;
#X text 100 525 osc;
#X text 505 22 setup;
#X obj 45 855 +~;
#X obj 100 855 +~;
#X obj 155 854 +~;
#X obj 210 854 +~;
#X obj 44 714 pan4~, f 10;
#X obj 44 794 +~;
#X obj 101 794 +~;
#X obj 155 794 +~;
#X obj 210 794 +~;
#X obj 119 704 genrev~;
#X obj 269 794 +~;
#X obj 326 794 +~;
#X obj 380 794 +~;
#X obj 435 794 +~;
#X obj 182 715 pan4~, f 10;
#X obj 257 705 genrev~;
#X obj 322 715 pan4~, f 10;
#X obj 397 705 genrev~;
#X obj 460 712 pan4~, f 10;
#X obj 535 702 genrev~;
#X obj 45 655 *~ 1;
#X floatatom 147 671 5 0 0 0 - - -;
#X floatatom 102 671 5 0 0 0 - - -;
#X obj 183 656 *~ 1;
#X obj 323 656 *~ 1;
#X obj 461 653 *~ 1;
#X text 34 105 sources;
#X floatatom 720 109 10 0 0 0 - - -;
#X obj 648 280 soundfiler;
#X floatatom 720 280 10 0 0 0 - - -;
#X obj 555 856 vsl 15 64 0 1 0 0 empty empty empty 0 -9 0 10 -262144
-1 -1 0 1;
#X obj 581 853 scale 0 100 0 1;
#X floatatom 581 875 10 0 0 0 - - -;
#X obj 843 886 loadbang;
#X obj 686 853 spigot;
#X obj 748 853 tgl 15 0 empty empty empty 17 7 0 10 -262144 -1 -1 1
1;
#X obj 581 917 select 1;
#X obj 686 831 t b b;
#X obj 686 875 bng 15 250 50 0 empty empty empty 17 7 0 10 -262144
-1 -1;
#X floatatom 283 672 5 0 0 0 - - -;
#X floatatom 240 672 5 0 0 0 - - -;
#X floatatom 422 673 5 0 0 0 - - -;
#X floatatom 380 672 5 0 0 0 - - -;
#X floatatom 569 672 5 0 0 0 - - -;
#X floatatom 518 672 5 0 0 0 - - -;
#X obj 102 549 netreceive -u -b 8000;
#X msg 723 920 disconnect \, connect localhost 12000;
#X obj 708 897 mrpeach/packOSC;
#X msg 708 875 send /shush 1;
#X obj 723 943 mrpeach/udpsend;
#X obj 581 831 env~ 16384 4096;
#X obj 45 132 bng 32 250 50 0 empty empty empty 17 7 0 10 -262144 -1
-1;
#X obj 45 912 *~;
#X obj 100 912 *~;
#X obj 156 912 *~;
#X obj 210 911 *~;
#X floatatom 255 885 5 0 2 0 - master-gain -;
#X text 256 866 master-gain;
#X obj 102 646 unpack f f f;
#X obj 240 647 unpack f f f;
#X obj 380 647 unpack f f f;
#X obj 518 644 unpack f f f;
#X obj 102 595 mrpeach/routeOSC /0 /1 /2 /3;
#X floatatom 611 896 5 0 0 0 - shush-threshold -;
#X floatatom 794 831 5 0 0 0 - shush-timeout -;
#X obj 748 831 delay;
#X obj 581 896 >;
#X floatatom 474 248 5 0 0 0 - - -;
#X floatatom 336 248 5 0 0 0 - - -;
#X floatatom 198 248 5 0 0 0 - - -;
#X floatatom 61 248 5 0 0 0 - - -;
#X obj 445 44 bng 15 250 50 0 empty empty empty 17 7 0 10 -262144 -1
-1;
#X obj 460 222 sourcectrl~;
#X obj 322 222 sourcectrl~;
#X obj 184 222 sourcectrl~;
#X obj 45 222 sourcectrl~;
#X text 631 802 process shushes (naive thresholding);
#X obj 61 274 list store;
#X obj 199 273 list store;
#X obj 336 272 list store;
#X obj 475 274 list store;
#X obj 648 322 soundfiler;
#X floatatom 720 322 10 0 0 0 - - -;
#X msg 648 301 read -resize resources/laughing.wav laughing;
#X obj 821 681 table laughing;
#X msg 789 321 laughing \$1;
#X obj 648 364 soundfiler;
#X floatatom 720 365 10 0 0 0 - - -;
#X obj 648 406 soundfiler;
#X floatatom 720 406 10 0 0 0 - - -;
#X obj 648 448 soundfiler;
#X floatatom 720 448 10 0 0 0 - - -;
#X msg 648 343 read -resize resources/eatingchips1.wav eatingchips1
;
#X msg 648 385 read -resize resources/eatingchips2.wav eatingchips2
;
#X obj 648 491 soundfiler;
#X floatatom 720 491 10 0 0 0 - - -;
#X obj 648 533 soundfiler;
#X floatatom 720 533 10 0 0 0 - - -;
#X msg 788 364 eatingchips1 \$1;
#X msg 788 405 eatingchips2 \$1;
#X msg 648 470 read -resize resources/partycrowd.wav partycrowd;
#X msg 788 490 partycrowd \$1;
#X msg 789 532 typing \$1;
#X msg 648 512 read -resize resources/typing.wav typing;
#X text 35 23 shush v0.9;
#X text 48 44 a sound installation by lesley van hoek;
#X text 49 60 built as part of sound \, space and interaction \, leiden
university;
#X obj 821 697 table eatingchips1;
#X obj 821 713 table eatingchips2;
#X obj 821 745 table partycrowd;
#X obj 821 761 table typing;
#X obj 649 567 list-abs/list-extend;
#X obj 649 589 print audio sources;
#X obj 624 656 t b b;
#X floatatom 61 319 5 0 0 0 - - -;
#X floatatom 199 318 5 0 0 0 - - -;
#X floatatom 336 317 5 0 0 0 - - -;
#X floatatom 475 319 5 0 0 0 - - -;
#X obj 61 297 unpack s f f;
#X obj 199 296 unpack s f f;
#X obj 336 295 unpack s f f;
#X obj 475 297 unpack s f f;
#X obj 648 151 soundfiler;
#X floatatom 720 152 10 0 0 0 - - -;
#X obj 648 194 soundfiler;
#X floatatom 720 195 10 0 0 0 - - -;
#X obj 821 617 table fuss2;
#X obj 821 601 table fuss1;
#X obj 821 633 table fuss3;
#X obj 821 649 table fuss4;
#X text 820 577 all sound;
#X msg 788 108 fuss1 \$1;
#X msg 788 151 fuss2 \$1;
#X msg 788 194 fuss3 \$1;
#X obj 648 237 soundfiler;
#X floatatom 720 238 10 0 0 0 - - -;
#X obj 465 44 t b b b b b b b b b b b b b;
#X obj 821 665 table fuss5;
#X msg 788 237 fuss4 \$1;
#X msg 788 279 fuss5 \$1;
#X msg 648 87 read -resize resources/413-20190423-1.wav fuss1;
#X msg 648 130 read -resize resources/413-20190423-2.wav fuss2;
#X msg 648 173 read -resize resources/413-20190423-3.wav fuss3;
#X msg 648 216 read -resize resources/413-20190423-4.wav fuss4;
#X msg 648 259 read -resize resources/413-20190326.wav fuss5;
#X msg 648 427 read -resize resources/jazz.wav jazz;
#X obj 821 729 table jazz;
#X msg 789 447 jazz \$1;
#X obj 45 199 spigot;
#X obj 87 177 tgl 15 0 empty empty empty 17 7 0 10 -262144 -1 -1 1
1;
#X obj 184 198 spigot;
#X obj 226 176 tgl 15 0 empty empty empty 17 7 0 10 -262144 -1 -1 1
1;
#X obj 322 198 spigot;
#X obj 364 176 tgl 15 0 empty empty empty 17 7 0 10 -262144 -1 -1 1
1;
#X obj 460 198 spigot;
#X obj 502 176 tgl 15 0 empty empty empty 17 7 0 10 -262144 -1 -1 1
1;
#X obj 46 947 dac~ 3 4 5 6, f 28;
#X obj 581 804 adc~ 1;
#X obj 53 178 bng 15 250 50 0 empty empty empty 17 7 0 10 -262144 -1
-1;
#X msg 624 678 \; master-gain 0.01 \; num-sources 11 \; shush-threshold
0.725 \; shush-timeout 2000 \; reverb-gain 1 \; minsamples-clip 864000
\;, f 28;
#X connect 0 0 32 0;
#X connect 1 0 76 0;
#X connect 2 0 67 0;
#X connect 5 0 57 0;
#X connect 6 0 58 0;
#X connect 7 0 59 0;
#X connect 8 0 60 0;
#X connect 9 0 10 0;
#X connect 9 1 11 0;
#X connect 9 2 12 0;
#X connect 9 3 13 0;
#X connect 10 0 5 0;
#X connect 11 0 6 0;
#X connect 12 0 7 0;
#X connect 13 0 8 0;
#X connect 14 0 15 0;
#X connect 14 1 16 0;
#X connect 14 2 17 0;
#X connect 14 3 18 0;
#X connect 15 0 5 1;
#X connect 16 0 6 1;
#X connect 17 0 7 1;
#X connect 18 0 8 1;
#X connect 19 0 10 1;
#X connect 19 1 11 1;
#X connect 19 2 12 1;
#X connect 19 3 13 1;
#X connect 20 0 15 1;
#X connect 20 1 16 1;
#X connect 20 2 17 1;
#X connect 20 3 18 1;
#X connect 21 0 10 1;
#X connect 21 1 11 1;
#X connect 21 2 12 1;
#X connect 21 3 13 1;
#X connect 22 0 15 1;
#X connect 22 1 16 1;
#X connect 22 2 17 1;
#X connect 22 3 18 1;
#X connect 23 0 10 1;
#X connect 23 1 11 1;
#X connect 23 2 12 1;
#X connect 23 3 13 1;
#X connect 24 0 15 1;
#X connect 24 1 16 1;
#X connect 24 2 17 1;
#X connect 24 3 18 1;
#X connect 25 0 9 0;
#X connect 25 0 14 0;
#X connect 28 0 19 0;
#X connect 28 0 20 0;
#X connect 29 0 21 0;
#X connect 29 0 22 0;
#X connect 30 0 23 0;
#X connect 30 0 24 0;
#X connect 32 0 136 0;
#X connect 33 0 34 0;
#X connect 34 0 144 0;
#X connect 35 0 37 0;
#X connect 36 0 35 0;
#X connect 37 0 71 0;
#X connect 38 0 40 0;
#X connect 38 0 51 0;
#X connect 39 0 43 0;
#X connect 39 0 40 0;
#X connect 39 0 70 0;
#X connect 40 0 39 1;
#X connect 41 0 42 0;
#X connect 42 1 39 0;
#X connect 43 0 53 0;
#X connect 50 0 2 0;
#X connect 51 0 54 0;
#X connect 52 0 54 0;
#X connect 53 0 52 0;
#X connect 55 0 36 0;
#X connect 56 0 153 0;
#X connect 56 0 155 0;
#X connect 56 0 157 0;
#X connect 56 0 159 0;
#X connect 57 0 161 0;
#X connect 58 0 161 1;
#X connect 59 0 161 2;
#X connect 60 0 161 3;
#X connect 61 0 60 1;
#X connect 61 0 59 1;
#X connect 61 0 58 1;
#X connect 61 0 57 1;
#X connect 63 0 27 0;
#X connect 63 0 9 1;
#X connect 63 1 26 0;
#X connect 63 1 9 2;
#X connect 63 1 14 1;
#X connect 63 2 80 2;
#X connect 64 0 45 0;
#X connect 64 0 19 1;
#X connect 64 1 44 0;
#X connect 64 1 19 2;
#X connect 64 1 20 1;
#X connect 64 2 79 2;
#X connect 65 0 47 0;
#X connect 65 0 21 1;
#X connect 65 1 46 0;
#X connect 65 1 21 2;
#X connect 65 1 22 1;
#X connect 65 2 78 2;
#X connect 66 0 49 0;
#X connect 66 0 23 1;
#X connect 66 1 48 0;
#X connect 66 1 23 2;
#X connect 66 1 24 1;
#X connect 66 2 77 2;
#X connect 67 0 63 0;
#X connect 67 1 64 0;
#X connect 67 2 65 0;
#X connect 67 3 66 0;
#X connect 68 0 71 1;
#X connect 69 0 70 1;
#X connect 70 0 40 0;
#X connect 71 0 41 0;
#X connect 76 0 141 0;
#X connect 76 0 160 0;
#X connect 76 0 158 0;
#X connect 76 0 156 0;
#X connect 76 0 154 0;
#X connect 77 0 30 0;
#X connect 77 1 72 0;
#X connect 77 2 85 0;
#X connect 77 2 126 0;
#X connect 78 0 29 0;
#X connect 78 1 73 0;
#X connect 78 2 84 0;
#X connect 78 2 125 0;
#X connect 79 0 28 0;
#X connect 79 1 74 0;
#X connect 79 2 83 0;
#X connect 79 2 124 0;
#X connect 80 0 25 0;
#X connect 80 1 75 0;
#X connect 80 2 82 0;
#X connect 80 2 123 0;
#X connect 82 0 80 1;
#X connect 83 0 79 1;
#X connect 84 0 78 1;
#X connect 85 0 77 1;
#X connect 86 0 87 0;
#X connect 87 0 90 0;
#X connect 88 0 86 0;
#X connect 90 0 116 0;
#X connect 91 0 92 0;
#X connect 92 0 103 0;
#X connect 93 0 94 0;
#X connect 94 0 104 0;
#X connect 95 0 96 0;
#X connect 96 0 152 0;
#X connect 97 0 91 0;
#X connect 98 0 93 0;
#X connect 99 0 100 0;
#X connect 100 0 106 0;
#X connect 101 0 102 0;
#X connect 102 0 107 0;
#X connect 103 0 116 0;
#X connect 104 0 116 0;
#X connect 105 0 99 0;
#X connect 106 0 116 0;
#X connect 107 0 116 0;
#X connect 108 0 101 0;
#X connect 116 0 85 1;
#X connect 116 0 84 1;
#X connect 116 0 82 1;
#X connect 116 0 117 0;
#X connect 118 0 116 1;
#X connect 118 1 164 0;
#X connect 123 1 119 0;
#X connect 124 1 120 0;
#X connect 125 1 121 0;
#X connect 126 1 122 0;
#X connect 127 0 128 0;
#X connect 128 0 137 0;
#X connect 129 0 130 0;
#X connect 130 0 138 0;
#X connect 136 0 116 0;
#X connect 139 0 140 0;
#X connect 140 0 143 0;
#X connect 141 0 116 0;
#X connect 141 1 108 0;
#X connect 141 2 105 0;
#X connect 141 3 150 0;
#X connect 141 4 98 0;
#X connect 141 5 97 0;
#X connect 141 6 88 0;
#X connect 141 7 149 0;
#X connect 141 8 148 0;
#X connect 141 9 147 0;
#X connect 141 10 146 0;
#X connect 141 11 145 0;
#X connect 141 12 118 0;
#X connect 144 0 116 0;
#X connect 145 0 0 0;
#X connect 146 0 127 0;
#X connect 147 0 129 0;
#X connect 148 0 139 0;
#X connect 149 0 33 0;
#X connect 150 0 95 0;
#X connect 152 0 116 0;
#X connect 153 0 80 0;
#X connect 154 0 153 1;
#X connect 155 0 79 0;
#X connect 156 0 155 1;
#X connect 157 0 78 0;
#X connect 158 0 157 1;
#X connect 159 0 77 0;
#X connect 160 0 159 1;
#X connect 162 0 55 0;
#X connect 163 0 153 0;
