#N canvas 730 236 450 300 10;
#X obj 62 116 snapshot~;
#X obj 15 92 inlet~;
#X obj 62 140 outlet;
#X obj 62 92 metro 10;
#X msg 62 69 1;
#X obj 62 17 loadbang;
#X floatatom 135 70 5 0 0 0 - - -;
#X obj 135 47 f \$1;
#X connect 0 0 2 0;
#X connect 1 0 0 0;
#X connect 3 0 0 0;
#X connect 4 0 3 0;
#X connect 5 0 4 0;
#X connect 5 0 7 0;
#X connect 6 0 3 1;
#X connect 7 0 6 0;
