#N canvas 314 141 724 533 12;
#X obj 147 170 cos~;
#X obj 235 171 cos~;
#X obj 235 142 -~ 0.25;
#X obj 126 252 *~;
#X obj 214 252 *~;
#X obj 40 37 inlet~;
#X obj 125 344 outlet~;
#X obj 213 344 outlet~;
#X obj 321 170 cos~;
#X obj 303 252 *~;
#X obj 302 344 outlet~;
#X obj 409 170 cos~;
#X obj 389 251 *~;
#X obj 388 343 outlet~;
#X obj 321 141 -~ 0.5;
#X obj 409 141 -~ 0.75;
#X obj 148 210 clip~ 0 1;
#X obj 235 209 clip~ 0 1;
#X obj 321 210 clip~ 0 1;
#X obj 407 209 clip~ 0 1;
#X obj 145 37 inlet;
#X obj 146 67 sig~;
#X obj 126 307 *~;
#X obj 214 305 *~;
#X obj 303 307 *~;
#X obj 387 304 *~;
#X obj 518 40 inlet;
#X obj 518 197 - 1;
#X obj 518 224 abs;
#X floatatom 518 251 5 0 0 0 - - -;
#X obj 146 92 *~ 1;
#X obj 260 61 wrap;
#X text 262 13 angle correction;
#X floatatom 260 87 5 0 0 0 - - -;
#X obj 260 36 - 0.125;
#X connect 0 0 16 0;
#X connect 1 0 17 0;
#X connect 2 0 1 0;
#X connect 3 0 22 0;
#X connect 4 0 23 0;
#X connect 5 0 3 0;
#X connect 5 0 4 0;
#X connect 5 0 9 0;
#X connect 5 0 12 0;
#X connect 8 0 18 0;
#X connect 9 0 24 0;
#X connect 11 0 19 0;
#X connect 12 0 25 0;
#X connect 14 0 8 0;
#X connect 15 0 11 0;
#X connect 16 0 3 1;
#X connect 17 0 4 1;
#X connect 18 0 9 1;
#X connect 19 0 12 1;
#X connect 20 0 34 0;
#X connect 21 0 30 0;
#X connect 22 0 6 0;
#X connect 23 0 7 0;
#X connect 24 0 10 0;
#X connect 25 0 13 0;
#X connect 26 0 27 0;
#X connect 27 0 28 0;
#X connect 28 0 29 0;
#X connect 29 0 25 1;
#X connect 29 0 24 1;
#X connect 29 0 23 1;
#X connect 29 0 22 1;
#X connect 30 0 0 0;
#X connect 30 0 2 0;
#X connect 30 0 14 0;
#X connect 30 0 15 0;
#X connect 31 0 33 0;
#X connect 33 0 21 0;
#X connect 34 0 31 0;
