#N canvas 1040 114 466 693 10;
#X obj 51 52 inlet;
#X obj 51 249 bng 15 250 50 0 empty empty empty 17 7 0 10 -262144 -1
-1;
#X obj 51 377 tabplay~;
#X obj 50 605 outlet~;
#X obj 51 270 random;
#X floatatom 286 81 12 0 0 0 - minsamples-clip -;
#X obj 210 211 -;
#X obj 167 55 inlet;
#X floatatom 84 249 10 0 0 0 - - -;
#X text 48 30 activate;
#X obj 210 189 f;
#X msg 194 308 set \$1;
#X obj 375 53 inlet;
#X text 373 27 status;
#X obj 309 370 line~;
#X floatatom 309 424 5 0 0 0 - - -;
#X obj 309 397 observe 10;
#X obj 50 579 *~ 1;
#X obj 207 605 outlet;
#X obj 371 213 delay 2000;
#X msg 309 332 0 2000;
#X floatatom 51 293 10 0 0 0 - - -;
#X obj 341 650 outlet;
#X obj 167 99 t b s;
#X obj 167 77 unpack s f;
#X floatatom 374 468 5 0 0 0 - num-sources -;
#X obj 374 488 - 1;
#X obj 424 332 bng 15 250 50 0 empty empty empty 17 7 0 10 -262144
-1 -1;
#X msg 341 627 get \$1 2;
#X obj 341 581 * 2;
#X floatatom 341 604 5 0 0 0 - - -;
#X msg 51 314 \$1;
#X obj 110 378 bng 15 250 50 0 empty empty empty 17 7 0 10 -262144
-1 -1;
#X obj 51 75 t b b;
#X obj 242 130 >=;
#X obj 208 168 spigot;
#X obj 269 131 tgl 15 0 empty empty empty 17 7 0 10 -262144 -1 -1 1
1;
#X obj 208 99 t b f f f;
#X obj 371 233 random 10000;
#X msg 371 332 1 \$1;
#X obj 371 254 + 4000;
#X obj 375 80 select -1 1;
#X obj 375 103 bng 15 250 50 0 empty empty empty 17 7 0 10 -262144
-1 -1;
#X obj 406 103 bng 15 250 50 0 empty empty empty 17 7 0 10 -262144
-1 -1;
#X floatatom 375 161 5 0 0 0 - - -;
#X obj 184 481 spigot;
#X obj 309 181 t b b b;
#X floatatom 217 426 5 0 0 0 - - -;
#X obj 375 139 t b b;
#X floatatom 411 173 5 0 0 0 - - -;
#X obj 162 361 loadbang;
#X msg 160 382 1;
#X floatatom 283 513 5 0 11 0 - - -;
#X obj 341 511 random;
#X text 281 493 debug;
#X text 164 32 table/numsamples;
#X floatatom 341 560 5 0 0 0 - - -;
#X connect 0 0 33 0;
#X connect 1 0 4 0;
#X connect 2 0 17 0;
#X connect 2 1 32 0;
#X connect 4 0 21 0;
#X connect 5 0 6 1;
#X connect 5 0 34 1;
#X connect 6 0 8 0;
#X connect 7 0 24 0;
#X connect 8 0 4 1;
#X connect 10 0 6 0;
#X connect 11 0 2 0;
#X connect 12 0 41 0;
#X connect 14 0 16 0;
#X connect 15 0 45 0;
#X connect 16 0 15 0;
#X connect 17 0 3 0;
#X connect 19 0 27 0;
#X connect 19 0 38 0;
#X connect 20 0 14 0;
#X connect 21 0 31 0;
#X connect 23 0 1 0;
#X connect 23 1 11 0;
#X connect 24 0 23 0;
#X connect 24 1 37 0;
#X connect 25 0 26 0;
#X connect 26 0 53 1;
#X connect 27 0 53 0;
#X connect 28 0 22 0;
#X connect 29 0 30 0;
#X connect 30 0 28 0;
#X connect 31 0 2 0;
#X connect 32 0 4 0;
#X connect 33 0 46 0;
#X connect 34 0 36 0;
#X connect 35 0 10 0;
#X connect 36 0 35 1;
#X connect 37 0 35 0;
#X connect 37 1 10 1;
#X connect 37 2 34 0;
#X connect 37 3 8 0;
#X connect 38 0 40 0;
#X connect 39 0 14 0;
#X connect 40 0 39 0;
#X connect 41 0 42 0;
#X connect 41 1 43 0;
#X connect 42 0 48 0;
#X connect 43 0 46 0;
#X connect 44 0 17 1;
#X connect 44 0 18 0;
#X connect 45 0 18 0;
#X connect 45 0 17 1;
#X connect 46 0 20 0;
#X connect 46 1 19 0;
#X connect 46 2 47 0;
#X connect 47 0 45 1;
#X connect 48 0 44 0;
#X connect 48 1 49 0;
#X connect 49 0 45 1;
#X connect 50 0 51 0;
#X connect 51 0 47 0;
#X connect 52 0 56 0;
#X connect 53 0 56 0;
#X connect 56 0 29 0;
