#N canvas 1492 132 304 380 10;
#X obj 51 52 inlet;
#X obj 51 124 bng 15 250 50 0 empty empty empty 17 7 0 10 -262144 -1
-1;
#X obj 51 290 tabplay~;
#X obj 51 328 outlet~;
#X obj 51 172 random;
#X floatatom 168 93 12 0 0 0 - sumsamples-clip -;
#X obj 130 114 -;
#X obj 145 52 inlet;
#X floatatom 94 149 10 0 0 0 - - -;
#X msg 51 228 \$1 1.7328e+006;
#X text 48 30 activate;
#X text 180 181 set table;
#X text 143 30 set num samples;
#X obj 130 89 f;
#X obj 51 93 t b b;
#X floatatom 64 199 10 0 0 0 - - -;
#X obj 181 205 loadbang;
#X msg 181 250 set \$1;
#X obj 181 228 symbol \$1;
#X connect 0 0 14 0;
#X connect 1 0 4 0;
#X connect 2 0 3 0;
#X connect 4 0 9 0;
#X connect 4 0 15 0;
#X connect 5 0 6 1;
#X connect 6 0 8 0;
#X connect 7 0 13 1;
#X connect 8 0 4 1;
#X connect 9 0 2 0;
#X connect 13 0 6 0;
#X connect 14 0 1 0;
#X connect 14 1 13 0;
#X connect 16 0 18 0;
#X connect 17 0 2 0;
#X connect 18 0 17 0;
